<?xml version="1.0" encoding="utf-8"?>
<!-- Generator: Adobe Illustrator 22.0.1, SVG Export Plug-In . SVG Version: 6.00 Build 0)  -->
<svg version="1.1" id="Слой_2" xmlns="http://www.w3.org/2000/svg" xmlns:xlink="http://www.w3.org/1999/xlink" x="0px" y="0px"
	 viewBox="0 0 271 118.2" style="enable-background:new 0 0 271 118.2;" xml:space="preserve">
<style type="text/css">
	.st0{fill:#106A87;}
	.st1{fill:#BDDBE0;}
	.st2{fill:#8EC7D2;}
	.st3{fill:none;}
	.st4{fill:#41859C;}
	.st5{fill:#EF424B;}
</style>
<polygon class="st0" points="0,0 110.4,41.5 135.5,51.1 135.5,78.7 "/>
<polygon class="st1" points="97.6,56.7 135.5,14.3 135.5,78.7 "/>
<polyline class="st2" points="135.5,78.7 135.5,115.3 51.1,111.3 0,0 135.5,78.7 "/>
<polygon class="st3" points="51.1,111.3 135.5,78.7 135.5,115.3 "/>
<polygon class="st1" points="271,0 160.7,41.5 135.5,51.1 135.5,78.7 "/>
<polyline class="st0" points="135.5,115.3 146.8,97 135.5,78.7 "/>
<polyline class="st4" points="135.5,78.7 135.5,115.3 220,111.3 271,0 135.5,78.7 "/>
<polyline class="st5" points="135.5,78.7 141.4,66.4 135.5,14.4 "/>
<polygon class="st0" points="173.4,56.7 135.5,14.3 135.5,78.7 "/>
<polygon class="st4" points="135.5,118.2 51.1,111.3 135.5,78.7 "/>
<polygon class="st4" points="135.6,118.2 144.2,101.4 135.5,78.7 129.6,81 131.7,116.3 "/>
<polygon class="st0" points="135.6,118.2 220,111.3 135.5,78.7 "/>
</svg>
